<?xml version="1.0" standalone="no"?>
<!DOCTYPE svg PUBLIC "-//W3C//DTD SVG 20010904//EN"
 "http://www.w3.org/TR/2001/REC-SVG-20010904/DTD/svg10.dtd">
<svg version="1.0" xmlns="http://www.w3.org/2000/svg"
 width="888.000000pt" height="888.000000pt" viewBox="0 0 888.000000 888.000000"
 preserveAspectRatio="xMidYMid meet">
<metadata>
Created by potrace 1.14, written by Peter Selinger 2001-2017
</metadata>
<g transform="translate(0.000000,888.000000) scale(0.100000,-0.100000)"
fill="#000000" stroke="none">
<path d="M4166 7983 c-4 -10 5 -12 34 -9 22 2 43 0 46 -5 9 -15 20 -10 21 9 1
15 -6 18 -48 18 -30 0 -50 -5 -53 -13z"/>
<path d="M4286 7988 c3 -5 10 -6 15 -3 13 9 11 12 -6 12 -8 0 -12 -4 -9 -9z"/>
<path d="M4806 7985 c-4 -12 -1 -16 11 -13 18 3 21 20 5 26 -5 1 -12 -4 -16
-13z"/>
<path d="M4515 7963 c4 -8 -1 -14 -12 -14 -65 -5 -100 -4 -116 3 -12 6 -19 4
-23 -6 -5 -12 -24 -14 -44 -5 -15 7 -37 3 -49 -9 -11 -10 -16 -11 -21 -1 -4 6
-13 9 -19 5 -6 -4 -20 -2 -32 5 -12 6 -19 7 -15 1 9 -15 -23 -25 -89 -27 -33
-2 -68 -6 -78 -10 -25 -11 -98 -12 -124 -3 -13 4 -25 3 -28 -3 -4 -5 -10 -7
-15 -4 -4 3 -10 -1 -13 -9 -7 -17 -57 -28 -57 -12 0 6 -4 5 -9 -3 -5 -8 -22
-15 -38 -15 -15 -1 -33 -4 -40 -9 -6 -4 -15 -2 -18 3 -5 7 -12 5 -21 -7 -7
-10 -14 -14 -14 -9 0 5 -7 3 -15 -4 -8 -7 -15 -8 -15 -2 0 18 -79 7 -93 -13
-8 -10 -19 -15 -25 -11 -7 4 -12 3 -12 -3 0 -6 -6 -8 -14 -5 -7 3 -16 -2 -19
-10 -4 -10 -15 -13 -33 -10 -15 3 -30 0 -34 -5 -11 -19 -97 -40 -111 -27 -9 8
-10 8 -5 -1 6 -11 -6 -18 -18 -10 -2 1 -13 -7 -25 -17 -12 -11 -21 -16 -21
-11 0 4 -7 2 -15 -5 -12 -10 -15 -10 -15 1 -1 9 -5 8 -15 -5 -13 -17 -28 -20
-110 -21 -52 0 -98 -5 -102 -10 -4 -4 -3 -6 2 -2 17 9 36 -8 29 -27 -5 -14
-55 -48 -74 -51 -3 0 -15 -6 -26 -13 -12 -6 -24 -9 -27 -6 -3 3 -16 -5 -28
-17 -15 -15 -24 -18 -27 -11 -2 7 -8 12 -13 12 -4 0 -6 -6 -3 -14 3 -8 -3 -16
-16 -19 -18 -5 -21 -2 -17 14 3 11 0 19 -8 19 -7 0 -12 -8 -12 -17 0 -34 -3
-39 -25 -40 -11 -1 -24 -7 -28 -14 -5 -7 -10 -8 -14 -1 -3 5 1 13 10 16 21 8
11 19 -21 23 -23 3 -28 -9 -12 -34 6 -9 2 -13 -12 -13 -12 0 -20 -6 -19 -12 2
-7 -5 -13 -15 -13 -10 0 -24 -8 -31 -17 -10 -14 -15 -15 -26 -5 -7 7 -10 7 -7
2 6 -12 -58 -60 -82 -60 -9 0 -21 3 -27 8 -7 4 -14 1 -17 -7 -4 -9 -15 -13
-27 -11 -13 2 -20 -1 -20 -11 0 -8 5 -13 11 -12 6 2 14 -3 16 -10 3 -8 -1 -10
-11 -6 -9 3 -16 1 -16 -5 0 -6 -7 -11 -16 -11 -8 0 -13 -4 -9 -9 6 -11 -49
-53 -58 -44 -4 3 -13 1 -20 -5 -8 -7 -17 -9 -21 -5 -4 4 -4 0 -1 -9 8 -20 -17
-32 -75 -34 -25 -1 -50 -2 -57 -3 -7 -1 -10 -11 -8 -22 6 -31 15 -36 28 -18
16 22 55 41 61 31 6 -11 -35 -48 -69 -64 -14 -6 -22 -14 -20 -19 5 -7 -84 -89
-97 -89 -4 0 -5 8 -1 18 5 14 3 15 -7 5 -10 -10 -11 -15 -1 -27 10 -11 9 -16
-3 -23 -13 -7 -16 -12 -16 -29 0 -4 -8 0 -17 7 -11 10 -14 10 -9 2 4 -8 1 -13
-9 -13 -11 0 -15 -6 -10 -19 8 -27 -5 -53 -23 -46 -9 3 -13 3 -9 -1 4 -4 2
-13 -4 -21 -6 -7 -8 -13 -5 -13 4 0 -2 -13 -14 -30 -12 -16 -26 -29 -33 -27
-6 1 -16 -14 -23 -33 -16 -47 -33 -50 -28 -5 1 19 0 35 -5 35 -9 0 -8 -81 2
-97 5 -7 0 -16 -12 -23 -11 -6 -18 -17 -15 -24 7 -17 -25 -68 -37 -60 -9 5
-10 3 -15 -52 -1 -18 -10 -44 -19 -58 -10 -14 -14 -26 -10 -26 5 0 1 -8 -8
-18 -10 -10 -15 -21 -12 -24 3 -3 -6 -8 -20 -12 -24 -6 -36 -26 -15 -26 13 0
13 -37 0 -45 -6 -4 -10 -12 -9 -18 5 -42 -20 -81 -45 -71 -10 4 -12 -14 -10
-86 1 -62 -1 -88 -9 -83 -6 4 -8 0 -4 -10 3 -9 2 -19 -2 -21 -4 -3 -7 -30 -6
-61 1 -30 -2 -55 -6 -55 -4 0 -6 -8 -5 -17 3 -21 -15 -54 -26 -47 -4 3 -5 -2
-2 -10 3 -8 13 -12 22 -9 12 3 13 2 5 -4 -7 -5 -15 -24 -17 -42 -2 -18 -10
-37 -17 -42 -11 -7 -10 -9 5 -9 15 0 16 -3 6 -15 -7 -8 -9 -15 -5 -15 4 0 2
-7 -6 -16 -9 -11 -10 -17 -1 -23 7 -4 8 -12 2 -21 -12 -18 -13 -60 -2 -60 11
0 8 -80 -4 -88 -5 -4 -9 -24 -9 -44 1 -21 -3 -38 -8 -38 -4 0 -5 -6 -1 -12 12
-19 12 -50 1 -78 -13 -33 -17 -152 -5 -167 6 -7 5 -14 -2 -18 -8 -5 -6 -13 6
-26 16 -17 16 -21 1 -36 -20 -23 -20 -28 -3 -61 13 -25 13 -33 1 -55 -7 -15
-10 -29 -5 -32 9 -6 8 -24 -4 -43 -4 -7 -3 -19 3 -26 6 -7 7 -16 3 -20 -4 -4
-8 -12 -8 -17 -1 -5 -2 -13 -3 -19 0 -5 -4 -9 -8 -9 -5 1 -11 0 -15 -1 -7 -2
-30 -6 -60 -9 -9 -1 -9 -4 0 -13 19 -19 15 -40 -6 -30 -9 5 -23 7 -31 4 -10
-3 -13 1 -8 19 l6 24 -17 -24 c-9 -13 -18 -33 -20 -45 -2 -11 -5 -28 -6 -36
-2 -9 -12 -14 -26 -12 -14 2 -20 0 -16 -7 4 -6 1 -11 -8 -11 -8 0 -16 -5 -18
-10 -2 -6 -14 -12 -28 -15 -13 -3 -28 -11 -32 -20 -5 -8 -16 -15 -25 -15 -13
0 -13 3 -3 15 7 8 11 16 9 16 -17 5 -99 4 -99 -2 0 -12 24 -25 45 -25 11 1 23
-3 27 -8 6 -9 -43 -56 -60 -56 -5 0 -13 -7 -16 -16 -5 -14 -9 -14 -23 -3 -15
12 -16 12 -10 -3 4 -12 1 -18 -9 -18 -8 0 -13 -4 -10 -9 3 -5 -3 -11 -14 -14
-11 -3 -19 -11 -18 -19 2 -7 -3 -12 -9 -11 -7 2 -13 -2 -13 -7 0 -6 -8 -10
-17 -10 -9 0 -13 -3 -10 -7 11 -10 -24 -43 -45 -43 -10 0 -18 -4 -18 -10 0
-21 -2 -25 -16 -41 -11 -12 -28 -16 -60 -14 -32 2 -44 -1 -44 -12 0 -7 -11
-18 -24 -23 -38 -14 -58 -66 -31 -77 8 -3 15 -12 15 -20 0 -8 -5 -11 -10 -8
-6 3 -10 2 -10 -4 0 -6 -12 -21 -27 -35 -20 -19 -30 -22 -40 -14 -13 11 -14
10 -18 -19 -3 -31 -26 -77 -46 -96 -10 -10 -19 -14 -20 -10 -3 21 4 59 13 71
7 8 7 17 -2 27 -19 23 -27 10 -25 -40 2 -40 -1 -48 -21 -57 -13 -6 -24 -16
-24 -21 0 -5 5 -5 13 1 8 7 18 7 27 1 11 -6 12 -11 4 -16 -6 -5 -14 -18 -18
-30 -4 -13 -14 -23 -22 -23 -8 0 -13 -4 -10 -8 3 -5 -4 -16 -15 -25 -11 -10
-17 -21 -14 -26 2 -5 -2 -12 -11 -15 -8 -3 -12 -10 -9 -16 3 -5 -1 -10 -9 -10
-8 0 -17 -8 -19 -17 -3 -10 -5 -4 -6 13 0 16 -7 38 -14 49 -12 16 -14 13 -12
-28 0 -26 4 -49 7 -53 12 -11 -3 -55 -32 -96 -17 -23 -30 -36 -30 -30 0 7 -4
12 -9 12 -10 0 -9 -19 2 -37 5 -8 4 -13 -2 -13 -6 0 -11 -9 -11 -20 0 -11 -7
-20 -16 -20 -9 0 -14 -7 -12 -18 2 -11 -2 -25 -8 -33 -6 -8 -16 -33 -23 -56
-6 -24 -17 -43 -23 -43 -6 0 -9 -3 -5 -6 3 -4 -1 -20 -9 -37 -9 -16 -18 -39
-19 -51 -8 -49 -13 -61 -25 -58 -8 2 -11 -6 -8 -22 5 -26 -6 -55 -17 -44 -4 3
-7 20 -9 37 -1 17 -5 31 -9 31 -4 0 -11 0 -16 0 -18 0 -5 -57 21 -85 18 -19
24 -33 18 -41 -6 -6 -7 -14 -3 -17 3 -4 1 -7 -6 -7 -7 0 -10 -4 -7 -9 3 -5 -3
-11 -14 -14 -14 -4 -19 -12 -18 -29 2 -12 6 -25 10 -28 8 -7 9 -30 4 -150 -5
-108 -4 -102 -18 -95 -7 4 -5 0 4 -8 16 -13 16 -15 0 -31 -13 -13 -14 -17 -2
-14 13 3 15 -6 10 -49 -1 -12 -3 -13 -7 -5 -2 7 -13 17 -24 22 -18 10 -19 6
-18 -82 1 -51 3 -85 6 -75 6 23 35 18 39 -5 1 -10 -1 -18 -6 -18 -13 0 -20
-29 -8 -36 6 -4 8 -3 4 4 -10 16 13 25 29 12 9 -8 12 -18 7 -29 -5 -9 -8 -23
-7 -31 1 -8 -4 -21 -9 -29 -9 -12 -7 -13 7 -8 11 4 17 1 18 -8 3 -29 7 -55 9
-57 1 -2 3 -18 3 -36 1 -18 9 -37 17 -42 8 -5 11 -10 6 -10 -5 0 -3 -7 4 -15
10 -12 9 -16 -5 -21 -15 -6 -16 -9 -3 -18 14 -11 44 -68 50 -96 2 -8 9 -20 17
-26 12 -9 11 -12 -1 -17 -16 -6 -22 -54 -8 -62 5 -3 7 6 5 20 -1 16 3 25 12
25 8 0 12 -4 8 -9 -3 -5 -1 -12 5 -16 6 -3 17 -20 26 -37 16 -30 15 -31 -6
-25 -15 4 -20 2 -16 -8 8 -21 -6 -26 -26 -8 -10 9 -18 11 -18 6 0 -6 8 -14 18
-18 15 -6 15 -8 2 -18 -17 -13 -24 -67 -10 -67 5 0 14 9 20 20 6 11 8 20 5 20
-3 0 -2 8 3 17 15 26 41 24 60 -5 9 -15 21 -30 26 -33 5 -4 6 -14 3 -23 -4 -9
-3 -15 1 -13 17 5 55 -33 55 -57 0 -17 4 -23 13 -19 9 3 14 -2 14 -16 0 -12 6
-21 13 -21 14 0 41 -57 37 -79 -1 -12 1 -13 13 -3 12 11 22 6 53 -24 38 -35
38 -36 19 -50 -22 -17 -29 -70 -9 -78 21 -8 37 20 25 42 -8 15 -7 23 3 31 11
9 17 4 30 -23 9 -19 16 -42 16 -53 0 -10 4 -14 8 -8 10 14 49 12 64 -3 9 -9 8
-12 -7 -13 -14 0 -11 -4 9 -9 16 -5 32 -7 36 -5 4 2 24 -11 45 -30 20 -19 41
-33 45 -30 11 7 35 -24 36 -47 2 -29 3 -31 17 -21 6 5 18 8 25 7 6 -1 17 -2
23 -3 5 0 7 -6 3 -13 -5 -8 0 -9 14 -6 12 4 22 2 22 -3 0 -5 3 -8 8 -7 19 5
50 -14 47 -30 -4 -27 14 -43 36 -31 14 7 19 6 19 -2 0 -6 6 -9 14 -6 8 3 16 2
18 -3 3 -7 48 -19 86 -22 6 -1 12 -10 12 -20 0 -10 5 -18 11 -18 5 0 7 5 4 10
-7 12 18 14 29 3 7 -8 11 -9 37 -12 8 -1 8 -5 -1 -16 -7 -8 -16 -13 -20 -10
-5 3 -11 2 -14 -3 -3 -5 13 -8 34 -8 21 0 38 3 38 6 0 3 0 11 1 19 1 16 16 5
16 -12 0 -6 17 -12 39 -12 23 -1 42 -7 47 -17 5 -10 17 -14 34 -11 20 4 27 0
35 -22 7 -19 14 -24 23 -18 13 9 34 9 57 0 8 -4 27 -8 41 -10 15 -1 34 -9 43
-16 8 -7 21 -11 28 -8 7 2 25 -2 40 -10 15 -7 30 -13 33 -13 20 1 25 -1 25 -9
0 -5 -17 -8 -37 -6 -21 1 -46 -2 -57 -7 -13 -7 -21 -6 -26 2 -9 14 -44 10 -42
-5 1 -5 41 -10 92 -10 70 -1 89 2 86 12 -3 7 2 13 10 13 8 0 12 -5 8 -11 -5
-8 -1 -8 14 0 15 8 21 8 24 -1 3 -7 26 -13 54 -14 65 -2 62 -1 69 -23 4 -14
14 -18 40 -16 19 1 35 -2 35 -8 0 -5 7 -4 15 3 10 9 15 9 16 1 3 -26 4 -30 11
-35 5 -3 6 -3 3 0 -7 11 15 45 26 39 5 -4 7 -10 4 -15 -3 -5 16 -8 42 -6 26 2
51 -1 54 -6 4 -6 13 -7 25 -1 23 12 186 9 205 -3 23 -14 951 -12 956 3 3 8 12
9 29 3 13 -5 24 -6 24 -1 0 10 101 8 118 -3 7 -4 12 -2 12 4 0 6 5 8 12 4 22
-14 45 -11 44 5 -1 18 20 21 49 8 16 -8 18 -7 8 4 -14 14 -17 30 -5 27 4 -1
16 2 27 8 11 6 72 10 137 9 91 -1 119 2 123 13 3 8 10 10 17 5 21 -12 38 -12
38 0 0 8 3 8 8 -1 5 -7 18 -14 31 -17 12 -2 19 0 16 4 -7 13 14 18 63 16 24
-2 43 2 44 9 0 6 2 16 3 21 2 6 3 16 4 23 0 7 5 11 10 8 5 -3 14 0 20 8 11 13
56 14 68 2 4 -3 12 -1 20 5 9 8 13 8 13 1 0 -17 27 -3 32 16 3 10 16 18 32 20
15 1 33 8 41 15 7 8 32 13 58 12 27 0 45 3 44 10 -3 13 82 14 97 0 12 -11 100
-14 111 -3 4 3 -1 5 -12 4 -10 -2 -24 4 -31 13 -8 9 -11 10 -7 4 10 -20 -42
-20 -60 -1 -7 8 -4 9 9 4 13 -4 23 0 34 15 9 13 21 19 33 16 11 -3 17 -1 14 3
-8 14 14 22 40 16 15 -4 22 -11 19 -20 -3 -9 3 -17 16 -21 14 -4 20 -13 17
-24 -3 -15 6 -17 79 -16 45 0 85 3 88 6 3 3 -26 5 -64 4 -79 -1 -99 5 -75 25
8 7 15 9 15 5 0 -5 8 -1 18 8 9 8 21 16 27 16 5 0 10 4 12 10 1 7 -1 7 -4 1
-3 -7 -11 -7 -24 0 -12 7 -19 7 -19 1 0 -6 -6 -8 -14 -5 -15 6 -10 43 5 45 20
3 24 5 37 12 7 5 12 3 12 -4 0 -7 8 -6 25 5 26 17 60 22 50 7 -3 -5 -1 -12 4
-15 4 -3 8 4 7 17 -1 21 3 22 77 22 42 -1 78 3 78 7 1 4 2 11 3 16 2 11 46 66
46 57 0 -4 10 -1 23 7 23 14 67 13 67 -2 0 -5 -8 -13 -17 -19 -10 -5 -15 -12
-12 -16 10 -9 49 -15 50 -7 1 4 2 18 3 32 6 54 17 72 42 67 13 -2 21 -1 19 4
-7 11 34 23 73 20 19 -1 31 2 28 7 -3 5 3 17 14 27 19 17 25 14 20 -10 -1 -5
9 0 22 13 14 12 27 19 31 15 4 -3 16 2 27 12 11 10 20 14 20 9 0 -5 7 0 15 10
15 20 15 20 15 0 0 -10 5 -26 10 -34 8 -12 14 -10 38 13 15 15 34 27 41 27 7
0 10 4 6 9 -3 5 4 12 15 16 11 4 18 11 15 16 -4 5 -1 10 4 10 21 3 26 4 39 12
6 5 12 5 12 2 0 -3 12 5 27 19 22 20 30 23 42 13 10 -8 13 -8 8 -1 -7 12 19
29 37 25 5 -1 17 6 27 15 11 9 19 13 19 9 0 -5 5 -4 11 2 6 6 17 9 24 7 7 -3
16 -1 19 4 3 6 21 8 39 5 23 -3 38 1 47 11 10 13 10 16 -1 16 -8 0 -2 8 13 18
21 14 47 17 121 17 73 0 93 3 90 13 -3 7 -13 10 -24 7 -25 -8 -46 30 -21 41 9
4 24 8 32 8 8 0 20 7 27 16 6 8 14 12 18 8 4 -3 15 2 25 12 11 11 29 17 44 16
14 -2 23 0 21 4 -8 13 115 90 164 102 7 2 25 13 39 26 19 17 28 19 39 11 11
-9 12 -9 8 4 -4 8 -2 18 4 22 6 3 11 1 11 -4 0 -6 5 -11 11 -11 5 0 7 5 4 10
-3 5 3 10 13 10 11 0 25 7 32 15 7 8 19 15 27 15 8 0 12 4 8 9 -7 13 33 35 65
35 14 1 24 6 23 13 -2 7 15 22 37 33 22 11 40 17 40 13 0 -5 5 0 11 10 7 12
17 16 32 12 17 -5 19 -4 7 4 -10 7 -11 11 -3 11 7 0 27 13 45 29 38 32 117 70
135 64 7 -3 17 7 23 21 8 23 20 31 35 24 2 -2 11 6 19 18 12 16 24 21 55 19
22 -1 38 2 35 7 -3 4 -10 5 -16 2 -6 -4 -8 1 -6 12 4 23 37 31 50 12 7 -10 8
-8 4 5 -8 25 4 44 15 26 6 -10 9 -8 9 9 0 13 4 20 10 17 6 -3 10 -1 10 6 0 7
3 9 7 6 3 -4 13 2 20 13 8 11 19 18 24 15 5 -4 9 -1 9 5 0 6 4 9 9 5 6 -3 14
3 20 12 6 10 11 14 11 10 0 -15 40 14 40 29 0 8 5 12 10 9 6 -3 10 -2 10 4 0
6 7 7 17 4 11 -4 14 -3 9 5 -4 7 -1 12 7 12 7 0 27 14 44 30 21 21 33 27 36
18 3 -8 6 -6 6 5 1 15 12 22 33 18 5 0 7 4 5 11 -1 7 3 12 8 13 11 0 55 37 91
75 13 14 24 20 24 15 0 -5 7 0 15 12 10 15 22 20 33 16 9 -3 14 -3 10 2 -10
10 22 34 45 35 10 0 16 4 13 9 -5 8 19 31 81 82 7 5 15 9 18 9 22 -1 25 1 20
11 -4 5 7 15 24 22 17 6 34 20 37 30 4 13 9 15 18 8 14 -11 26 -5 26 13 0 6
-5 4 -10 -4 -6 -10 -10 -11 -10 -3 0 18 32 53 42 47 4 -3 8 0 8 5 0 6 7 11 15
11 8 0 14 4 12 9 -3 14 115 121 134 121 19 0 45 27 35 37 -3 3 -6 1 -6 -6 0
-7 -5 -9 -10 -6 -10 6 40 55 57 55 6 0 20 9 33 20 17 14 27 17 36 9 21 -17 29
18 11 49 -6 8 -1 12 13 12 15 0 20 5 17 15 -3 7 3 24 13 37 l20 23 -4 -35 c-4
-44 2 -60 19 -54 14 6 13 33 0 80 -4 12 -1 27 7 35 30 32 78 98 78 108 0 6 5
11 11 11 5 0 8 4 5 8 -3 5 5 20 17 33 12 13 23 27 23 31 1 5 2 12 3 18 0 5 9
7 19 3 16 -6 16 -5 0 13 -12 14 -14 24 -7 31 5 5 18 25 29 44 19 34 21 36 53
24 13 -6 17 -2 17 19 0 26 -22 36 -35 16 -3 -5 -12 -10 -18 -10 -8 0 -8 3 -2
8 6 4 11 21 11 37 1 43 15 104 25 111 5 3 2 16 -7 29 -9 13 -13 28 -11 33 3 4
2 14 -3 22 -5 9 -5 19 2 27 7 9 7 13 0 13 -6 0 -16 19 -23 43 -6 23 -14 47
-19 52 -4 6 -6 18 -5 28 2 9 0 15 -4 12 -14 -8 -33 47 -21 59 7 7 10 6 10 -3
0 -7 5 -9 10 -6 11 7 9 49 -2 61 -4 3 -5 -2 -4 -13 3 -20 -22 -43 -40 -36 -7
2 -10 19 -8 39 2 26 -2 36 -17 44 -11 6 -17 15 -14 20 3 4 0 10 -5 12 -6 2
-12 13 -13 26 0 12 -5 22 -10 22 -4 0 -20 14 -34 30 -13 17 -31 30 -39 30 -30
0 -76 31 -72 48 4 15 -5 17 -76 16 -49 0 -87 4 -96 12 -8 6 -39 11 -70 10 -30
-1 -64 2 -75 8 -23 11 -95 16 -109 8 -21 -12 -101 -7 -112 7 -6 8 -31 16 -56
17 -25 2 -49 4 -54 5 -5 1 -17 -1 -27 -6 -11 -4 -23 -3 -30 4 -8 8 -8 11 0 11
7 0 11 9 10 20 -1 17 -12 19 -12 2 0 -4 -4 -13 -9 -20 -6 -10 -11 -10 -22 -1
-10 8 -14 8 -14 0 0 -18 -30 -12 -31 7 0 9 -2 27 -3 40 -2 17 2 22 21 22 13 0
25 -1 27 -2 2 -2 13 5 24 15 22 20 19 49 -4 40 -8 -3 -12 -9 -9 -13 6 -10 -12
-23 -37 -27 -18 -3 -23 13 -19 64 1 11 -3 24 -9 28 -8 5 -8 11 0 19 7 10 3 23
-14 49 -13 19 -21 38 -18 42 14 13 -109 -18 -133 -34 -5 -4 -16 -6 -22 -5 -35
5 -31 -12 -37 134 -3 58 -7 115 -10 127 -2 13 -1 25 3 28 14 8 -1 150 -17 167
-4 4 -6 26 -4 48 3 30 8 40 18 36 21 -8 12 18 -10 27 -13 5 -15 11 -9 20 6 6
9 22 8 35 -1 12 3 22 9 22 6 0 3 6 -6 14 -15 11 -15 15 -3 40 15 28 12 51 -5
41 -4 -3 -11 3 -15 13 -10 22 -13 152 -4 158 9 5 23 -27 20 -46 -2 -11 2 -10
12 4 12 16 14 34 8 79 -1 5 -5 5 -11 2 -5 -3 -10 -3 -11 2 -1 4 -3 26 -5 48
-10 106 -11 110 -28 109 -10 -1 -18 8 -22 25 -14 66 -15 62 21 57 23 -4 35 -1
38 8 7 17 -33 30 -47 16 -14 -14 -35 31 -24 52 5 10 3 22 -5 30 -7 7 -12 24
-11 38 1 14 -2 30 -7 35 -4 6 -4 17 1 25 7 11 4 19 -10 30 -13 10 -18 22 -14
37 4 13 11 20 17 16 6 -3 7 -1 3 5 -4 7 -13 12 -20 12 -7 0 -13 6 -14 13 0 6
-3 23 -7 37 -4 14 -7 31 -7 38 -1 6 -6 12 -11 12 -5 0 -4 7 4 16 7 9 13 42 14
76 0 64 -9 84 -19 42 -6 -21 -9 -24 -22 -14 -12 10 -12 16 -2 28 10 13 10 14
1 8 -8 -4 -13 -2 -13 7 0 8 -7 20 -15 27 -8 7 -12 17 -8 23 3 5 1 7 -5 3 -6
-3 -13 -2 -17 4 -3 5 -1 10 6 10 8 0 8 4 -1 15 -7 8 -9 15 -5 15 4 0 1 7 -6
16 -8 9 -12 28 -11 42 2 14 0 22 -6 18 -5 -3 -15 1 -22 9 -8 10 -9 15 -2 15 6
0 9 7 6 15 -4 8 -11 15 -18 15 -6 0 -13 14 -14 31 -1 17 2 28 7 25 5 -3 8 2 7
11 -3 22 -18 20 -26 -2 -6 -16 -7 -16 -20 0 -11 13 -11 21 -2 35 8 14 7 22 -4
36 -11 14 -17 15 -20 7 -9 -21 -24 -15 -37 15 -6 15 -22 38 -34 51 -25 29 -22
42 9 33 14 -3 19 -1 14 6 -3 6 -16 9 -29 7 -26 -5 -62 19 -52 34 4 7 0 8 -11
4 -13 -5 -16 -3 -11 10 4 11 2 14 -9 10 -10 -4 -14 3 -14 26 0 17 -4 31 -10
31 -5 0 -7 6 -4 14 7 19 -29 39 -43 25 -14 -14 -53 -2 -53 15 0 7 -9 21 -20
31 -11 10 -18 20 -15 23 2 2 -11 15 -30 27 -22 16 -41 21 -57 17 -22 -5 -22
-5 -6 19 9 13 22 23 30 21 8 -1 6 3 -4 11 -15 12 -26 12 -70 1 -37 -10 -54
-11 -59 -3 -3 6 -10 11 -15 11 -5 0 -17 6 -27 13 -14 10 -15 14 -5 18 7 3 0 6
-15 6 -35 1 -70 19 -62 32 4 5 1 9 -4 9 -6 0 -13 0 -16 0 -3 0 -13 8 -23 18
-19 17 -19 38 0 26 7 -5 7 -1 0 12 -8 14 -22 19 -51 20 -44 0 -57 -13 -17 -18
17 -2 22 -7 17 -20 -6 -16 -12 -15 -65 11 -32 16 -67 28 -77 26 -10 -2 -19 0
-19 5 0 4 -8 7 -17 5 -10 -1 -25 4 -35 12 -9 8 -22 13 -30 12 -26 -3 -39 1
-33 12 4 6 1 9 -6 8 -8 -1 -34 3 -58 10 -23 7 -49 10 -57 7 -7 -3 -16 -1 -19
4 -3 4 -13 7 -23 5 -9 -1 -26 2 -37 9 -11 6 -35 11 -52 11 -18 -1 -33 2 -33 6
0 4 -9 9 -21 12 -12 3 -18 10 -15 16 4 5 1 13 -5 17 -7 4 -9 3 -6 -3 4 -6 0
-16 -8 -23 -15 -13 -20 -5 -16 26 1 6 -6 11 -14 11 -9 0 -14 -6 -11 -13 2 -6
-4 -14 -15 -17 -22 -6 -25 3 -6 22 6 8 0 6 -14 -3 -22 -14 -29 -15 -40 -4 -9
8 -36 13 -69 13 -30 -1 -61 4 -69 9 -8 6 -30 12 -50 12 -54 3 -54 3 -40 22 13
16 12 16 -6 1 -24 -20 -69 -18 -113 4 -18 8 -30 11 -27 6 4 -5 -12 -7 -37 -5
-24 3 -49 5 -56 5 -7 1 -10 6 -7 11 4 6 -5 10 -23 8 -17 -1 -37 4 -46 11 -11
9 -20 10 -28 4 -7 -6 -21 -9 -30 -8 -10 2 -20 -1 -23 -6 -3 -4 -16 -4 -30 1
-14 5 -25 7 -25 4 0 -4 -7 -1 -15 6 -8 7 -13 16 -10 20 9 15 -24 19 -36 4 -7
-8 -20 -12 -30 -9 -11 4 -19 2 -19 -4 0 -13 -41 -5 -51 10 -4 8 -9 8 -13 1 -4
-6 -13 -9 -21 -6 -8 4 -13 10 -10 14 3 4 -10 6 -28 3 -69 -9 -123 -9 -134 0
-7 5 -17 6 -23 2 -24 -15 -54 -14 -67 3 -8 9 -12 11 -8 5z m2825 -1343 c0 -11
-4 -20 -9 -20 -11 0 -22 26 -14 34 12 12 23 5 23 -14z m-6573 -2332 c-2 -7
-10 -12 -16 -10 -6 1 -11 -4 -11 -12 0 -8 -10 -22 -22 -30 -12 -9 -18 -16 -13
-16 5 0 4 -5 -2 -11 -21 -21 -34 0 -17 27 9 13 13 24 9 24 -5 0 0 9 10 20 20
22 70 28 62 8z m-723 -1695 c-22 -16 -28 -11 -19 17 6 17 9 19 22 9 13 -11 13
-14 -3 -26z m3995 -1593 c-6 -5 -19 -6 -27 -2 -13 4 -12 7 4 12 23 9 41 1 23
-10z"/>
<path d="M5430 7906 c0 -2 7 -7 16 -10 8 -3 12 -2 9 4 -6 10 -25 14 -25 6z"/>
<path d="M3616 7888 c3 -5 10 -6 15 -3 13 9 11 12 -6 12 -8 0 -12 -4 -9 -9z"/>
<path d="M3372 7831 c-16 -13 -10 -30 11 -29 23 2 47 15 47 27 0 8 -47 9 -58
2z"/>
<path d="M6526 7665 c-2 -7 1 -16 9 -19 7 -2 16 1 19 9 2 7 -1 16 -9 19 -7 2
-16 -1 -19 -9z"/>
<path d="M2843 7624 c-16 -12 -16 -15 -3 -23 10 -7 19 -6 30 3 8 7 21 11 29 8
8 -3 12 1 9 9 -6 18 -43 20 -65 3z"/>
<path d="M2534 7509 c-3 -5 -2 -9 3 -8 4 1 10 0 13 -1 19 -7 41 -7 46 1 3 5
-1 9 -8 10 -7 0 -21 2 -30 4 -10 2 -21 -1 -24 -6z"/>
<path d="M6846 7505 c-2 -7 1 -16 9 -19 7 -2 16 1 19 9 2 7 -1 16 -9 19 -7 2
-16 -1 -19 -9z"/>
<path d="M6853 7390 c-2 -24 13 -35 20 -16 3 8 0 19 -7 25 -8 7 -12 5 -13 -9z"/>
<path d="M2325 7350 c-3 -5 -1 -10 4 -10 6 0 11 5 11 10 0 6 -2 10 -4 10 -3 0
-8 -4 -11 -10z"/>
<path d="M2249 7313 c0 -5 -2 -18 -3 -30 -2 -18 2 -22 21 -21 25 3 31 26 11
46 -14 14 -28 16 -29 5z"/>
<path d="M7019 7259 c5 -6 7 -18 4 -25 -3 -8 -1 -14 5 -14 13 0 9 27 -6 40 -8
7 -9 7 -3 -1z"/>
<path d="M7165 7100 c-3 -5 1 -10 10 -10 9 0 13 5 10 10 -3 6 -8 10 -10 10 -2
0 -7 -4 -10 -10z"/>
<path d="M1930 7028 c0 -9 5 -20 10 -23 13 -8 13 5 0 25 -8 13 -10 13 -10 -2z"/>
<path d="M1806 6864 c-8 -21 21 -39 39 -24 9 7 14 18 12 24 -5 16 -45 16 -51
0z"/>
<path d="M1565 6289 c-4 -6 -5 -12 -2 -15 2 -3 7 2 10 11 7 17 1 20 -8 4z"/>
<path d="M7490 6220 c0 -5 5 -10 10 -10 6 0 10 5 10 10 0 6 -4 10 -10 10 -5 0
-10 -4 -10 -10z"/>
<path d="M7490 6100 c0 -5 5 -10 10 -10 6 0 10 5 10 10 0 6 -4 10 -10 10 -5 0
-10 -4 -10 -10z"/>
<path d="M1456 6072 c-3 -5 1 -9 9 -9 8 0 12 4 9 9 -3 4 -7 8 -9 8 -2 0 -6 -4
-9 -8z"/>
<path d="M1449 6030 c-5 -25 -4 -60 1 -60 4 0 13 7 20 16 11 12 10 18 -3 32
-10 9 -17 14 -18 12z"/>
<path d="M7509 5973 c0 -5 -2 -16 -4 -26 -2 -11 -1 -16 3 -13 8 8 14 46 7 46
-3 0 -5 -3 -6 -7z"/>
<path d="M1458 5923 c6 -2 18 -2 25 0 6 3 1 5 -13 5 -14 0 -19 -2 -12 -5z"/>
<path d="M7486 5752 c-3 -5 1 -9 9 -9 8 0 15 4 15 9 0 4 -4 8 -9 8 -6 0 -12
-4 -15 -8z"/>
<path d="M1444 5729 c0 -10 4 -19 8 -19 4 0 8 6 8 14 0 8 -4 17 -8 20 -4 2 -8
-4 -8 -15z"/>
<path d="M1455 5520 c-3 -5 -1 -10 4 -10 6 0 11 5 11 10 0 6 -2 10 -4 10 -3 0
-8 -4 -11 -10z"/>
<path d="M8550 4630 c0 -5 5 -10 11 -10 5 0 7 5 4 10 -3 6 -8 10 -11 10 -2 0
-4 -4 -4 -10z"/>
<path d="M867 4466 c-4 -10 0 -14 14 -13 10 1 18 6 16 11 -5 16 -24 18 -30 2z"/>
<path d="M8728 4464 c13 -9 26 -13 30 -9 8 8 -17 25 -38 25 -9 0 -6 -6 8 -16z"/>
<path d="M656 4312 c-3 -5 1 -9 9 -9 8 0 12 4 9 9 -3 4 -7 8 -9 8 -2 0 -6 -4
-9 -8z"/>
<path d="M8831 3784 c0 -11 3 -14 6 -6 3 7 2 16 -1 19 -3 4 -6 -2 -5 -13z"/>
<path d="M163 3485 c0 -23 1 -24 13 -8 17 23 17 33 0 33 -8 0 -13 -10 -13 -25z"/>
<path d="M115 3400 c-3 -5 -1 -10 4 -10 6 0 11 5 11 10 0 6 -2 10 -4 10 -3 0
-8 -4 -11 -10z"/>
<path d="M8522 3311 c4 -13 18 -16 19 -4 0 4 -5 9 -11 12 -7 2 -11 -2 -8 -8z"/>
<path d="M5 3188 c-4 -9 -5 -26 -3 -38 3 -22 3 -22 20 -3 16 17 16 22 4 39
-13 17 -15 17 -21 2z"/>
<path d="M8293 3121 c-1 -13 3 -18 12 -15 8 3 11 12 8 20 -7 20 -18 17 -20 -5z"/>
<path d="M0 2812 c0 -40 4 -72 10 -72 10 0 7 127 -4 137 -3 4 -6 -26 -6 -65z"/>
<path d="M7980 2845 c-7 -9 -8 -15 -2 -15 5 0 12 7 16 15 3 8 4 15 2 15 -2 0
-9 -7 -16 -15z"/>
<path d="M7824 2733 c4 -4 16 -8 28 -10 28 -4 18 6 -12 12 -12 2 -20 1 -16 -2z"/>
<path d="M0 2425 c0 -17 13 -26 25 -17 17 12 14 28 -6 29 -10 1 -19 -4 -19
-12z"/>
<path d="M7210 2350 c0 -5 7 -7 15 -4 8 4 15 8 15 10 0 2 -7 4 -15 4 -8 0 -15
-4 -15 -10z"/>
<path d="M7157 2269 c7 -7 15 -10 18 -7 3 3 -2 9 -12 12 -14 6 -15 5 -6 -5z"/>
<path d="M6983 2169 c-1 -10 8 -20 20 -23 25 -6 26 -5 32 21 3 17 -2 20 -24
19 -18 0 -28 -6 -28 -17z"/>
<path d="M6865 2099 c-4 -6 -5 -12 -2 -15 2 -3 7 2 10 11 7 17 1 20 -8 4z"/>
<path d="M260 1786 c-21 -21 -5 -26 51 -17 4 1 9 7 12 14 6 16 -47 19 -63 3z"/>
<path d="M329 1718 c-1 -23 -1 -83 0 -103 1 -8 7 -12 16 -9 11 5 12 11 4 26
-7 13 -7 23 0 32 8 10 7 21 -4 42 -11 21 -15 24 -16 12z"/>
<path d="M397 1613 c-3 -5 12 -8 33 -8 21 -1 36 3 34 7 -7 10 -61 10 -67 1z"/>
<path d="M5721 1531 c-9 -6 -11 -16 -5 -32 4 -13 7 -29 6 -35 -1 -7 4 -14 13
-18 16 -6 17 -5 17 39 1 59 -3 64 -31 46z"/>
<path d="M644 1323 c0 -18 3 -33 6 -34 63 -12 79 3 46 42 -31 36 -52 33 -52
-8z"/>
<path d="M4250 1037 c0 -31 54 -47 64 -20 3 7 1 13 -4 13 -18 0 -25 2 -42 11
-13 7 -18 6 -18 -4z"/>
<path d="M1447 1026 c-3 -8 0 -17 8 -20 14 -5 28 17 18 28 -10 10 -21 7 -26
-8z"/>
</g>
</svg>
