<?xml version="1.0" standalone="no"?>
<!DOCTYPE svg PUBLIC "-//W3C//DTD SVG 20010904//EN"
 "http://www.w3.org/TR/2001/REC-SVG-20010904/DTD/svg10.dtd">
<svg version="1.0" xmlns="http://www.w3.org/2000/svg"
 width="800.000000pt" height="800.000000pt" viewBox="0 0 800.000000 800.000000"
 preserveAspectRatio="xMidYMid meet">
<metadata>
Created by potrace 1.14, written by Peter Selinger 2001-2017
</metadata>
<g transform="translate(0.000000,800.000000) scale(0.100000,-0.100000)"
fill="#000000" stroke="none">
<path d="M3645 6623 c-611 -13 -1176 -127 -1541 -311 -191 -96 -371 -244 -442
-365 -169 -284 -275 -808 -312 -1547 -5 -107 -10 -239 -10 -293 0 -108 -8
-133 -62 -184 -87 -83 -193 -101 -521 -85 -281 14 -338 8 -444 -43 -207 -101
-240 -290 -80 -448 58 -56 142 -108 367 -227 875 -465 1751 -826 3190 -1319
640 -219 976 -298 1535 -363 70 -8 243 -13 475 -13 298 0 390 3 500 18 713 97
1190 346 1436 752 169 277 186 570 48 835 -59 114 -123 197 -235 305 -117 112
-238 203 -395 295 -95 56 -317 166 -368 183 -5 2 1 68 13 147 43 294 58 593
42 823 -25 347 -90 595 -210 802 -129 224 -555 548 -951 726 -502 225 -1190
330 -2035 312z"/>
</g>
</svg>
